<?xml version="1.0" encoding="utf-8"?>
<!-- Generator: Adobe Illustrator 25.1.0, SVG Export Plug-In . SVG Version: 6.00 Build 0)  -->
<svg version="1.1" id="Layer_1" xmlns="http://www.w3.org/2000/svg" xmlns:xlink="http://www.w3.org/1999/xlink" x="0px" y="0px"
	 viewBox="0 0 497 199.8" style="enable-background:new 0 0 497 199.8;" xml:space="preserve">
<style type="text/css">
	.st0{fill:#440099;}
	.st1{fill:#FFFFFF;}
</style>
<path class="st0" d="M89.8,35.6c-18.6,0-36.6,2.5-53.6,7.3v45.7c0,10.2,1.4,19.5,4.2,27.9c2.6,7.8,6.4,14.9,11.4,21.2
	c8.6,10.8,20.9,19.5,37.3,26.3l0.7,0.3l0.7-0.3c16.5-6.9,28.7-15.5,37.3-26.3c5-6.3,8.8-13.4,11.4-21.2c2.8-8.3,4.2-17.7,4.2-27.9
	V42.9C126.4,38.1,108.4,35.6,89.8,35.6z"/>
<path class="st1" d="M64.3,113.6v-1.7l-3.4,2.5l-1.1-1.6h0c-2.2,2.3-4.2,4.8-5.9,7.5l0,0h0c3.1-0.7,6.1-1.8,9-3.3h0l-1.1-1.6
	L64.3,113.6L64.3,113.6z"/>
<polygon class="st1" points="121.1,72.4 123.5,70.6 122.7,69.5 120.3,71.2 120.8,67.9 114.4,73.6 114.1,75.7 106.5,81.2 108.9,81.2 
	114.9,76.9 117.1,77.2 124.4,72.9 "/>
<path class="st1" d="M89.8,117.9L89.8,117.9c-0.7,0-1.3-0.1-2-0.3l-16.3,11.9l-1.1-1.6h0c-2.2,2.3-4.2,4.8-5.9,7.5l0,0h0
	c3.1-0.7,6.1-1.8,9-3.3h0l-1.1-1.6L89.8,117.9L89.8,117.9z"/>
<polygon class="st1" points="131.7,87.5 134.1,85.7 133.3,84.6 130.9,86.3 131.4,83 125,88.7 124.7,90.8 115.3,97.6 115.3,99.4 
	125.5,92 127.7,92.3 135.1,88 "/>
<path class="st1" d="M78.6,114.7h-2.4l-10,7.3l-1.1-1.6h0c-2.2,2.3-4.2,4.8-5.9,7.5l0,0h0c3.1-0.7,6.1-1.8,9-3.3h0l-1.1-1.6
	L78.6,114.7L78.6,114.7z"/>
<polygon class="st1" points="126.4,79.9 128.8,78.2 128,77 125.6,78.8 126.1,75.4 119.7,81.1 119.4,83.3 115.3,86.2 115.3,88 
	120.2,84.4 122.4,84.8 129.7,80.4 "/>
<path class="st1" d="M110.1,47.2c0,0-0.3,0-0.7,0l0,0c-1,0-2.9,0.1-4.2,1.4c-0.5,0.5-0.6,1.1-0.6,1.7l0,0c0,0,0,0.1,0,0.2
	c0,0,0,0.1,0,0.1c0,0,0,0,0,0c0,0.1,0,0.1,0,0.1l0,0c0,0.1,0,0.2,0.1,0.3c-0.2-0.2-0.4-0.4-0.7-0.5c-2.1-0.9-4.4,0.2-4.4,0.2
	s0.5,2.6,2.9,3.3c0.6,0.2,1.2,0.1,1.6-0.1l-0.5,0.9c-0.6,1.1-1.9,1.8-3.2,1.5c-1.7-0.3-2.8-1.9-2.4-3.5l-0.7-0.1l-0.7-0.1
	c-0.2,0.8-0.6,1.5-1.3,2c-0.7,0.5-1.5,0.6-2.3,0.5c-1.4-0.3-2.5-1.5-2.5-3v-1.9c0.4,0.5,1,0.9,1.7,0.9c2.3,0,4-1.9,4-1.9
	s-1.7-1.9-4-1.9c-0.3,0-0.5,0.1-0.8,0.2c0.5-0.4,0.8-1,0.8-1.7c0-2.5-2.5-4.4-2.5-4.4s-2.5,1.9-2.5,4.4c0,0.7,0.4,1.2,0.8,1.7
	c-0.2-0.1-0.5-0.2-0.8-0.2c-2.3,0-4,1.9-4,1.9s1.7,1.9,4,1.9c0.8,0,1.3-0.4,1.7-0.9v1.9c0,1.5-1,2.7-2.5,3c-0.8,0.1-1.6,0-2.3-0.5
	s-1.1-1.2-1.3-2l-0.7,0.1l-0.7,0.1c0.3,1.7-0.8,3.2-2.5,3.5c-1.3,0.2-2.6-0.4-3.2-1.5L75.5,54c0.5,0.2,1.1,0.2,1.6,0.1
	c2.4-0.7,2.9-3.3,2.9-3.3s-2.3-1.1-4.4-0.2c-0.3,0.1-0.5,0.3-0.7,0.5c0-0.1,0-0.2,0-0.3l0,0c0-0.1,0-0.1,0-0.1c0,0,0,0,0,0
	c0,0,0-0.1,0-0.1c0-0.1,0-0.1,0-0.2l0,0c0-0.6-0.2-1.2-0.6-1.7c-1.3-1.2-3.2-1.4-4.2-1.4l0,0c-0.4,0-0.7,0-0.7,0s-0.1,0.5,0,1.2
	c1.2,1.3,2.4,2.8,3.4,4.3c1.4,2.1,2.5,4.3,3.4,6.6l2.7,1.6l-1.5,2.6c0.2,1.1,0.4,2.1,0.6,3.2l0,0c0,0,0,0,0.1,0l0,0l0,0
	c3.8,0.8,7.8,1.2,11.7,1.2l0,0c0,0,0,0,0,0s0,0,0,0l0,0c4,0,7.9-0.4,11.7-1.2l0,0l0,0c0,0,0,0,0.1,0l0,0c0.1-1.1,0.3-2.2,0.6-3.2
	l-1.5-2.6l2.7-1.6c0.9-2.3,2-4.5,3.4-6.6c1-1.5,2.1-2.9,3.4-4.3C110.2,47.7,110.1,47.2,110.1,47.2L110.1,47.2z M96.5,58.1
	c1,0,1.8,0.8,1.8,1.8c0,1-0.8,1.8-1.8,1.8c-1,0-1.8-0.8-1.8-1.8C94.8,58.9,95.6,58.1,96.5,58.1z M89.8,56.3l2.5,2.5l-2.5,2.5
	l-2.5-2.5L89.8,56.3z M83,58.1c1,0,1.8,0.8,1.8,1.8c0,1-0.8,1.8-1.8,1.8c-1,0-1.8-0.8-1.8-1.8C81.3,58.9,82,58.1,83,58.1z
	 M100.3,65.5c-3.4,0.6-7,1-10.5,1s-7.1-0.3-10.5-1c0-0.2-0.1-0.4-0.1-0.6c3.5-0.7,7-1,10.6-1s7.2,0.3,10.6,1
	C100.4,65.1,100.4,65.3,100.3,65.5L100.3,65.5z"/>
<polygon class="st1" points="89.8,83.7 70,69.3 67.8,69.6 60.4,65.3 63.8,64.8 61.4,63 62.2,61.9 64.6,63.7 64.1,60.3 70.5,66 
	70.8,68.2 89.8,81.9 108.8,68.2 109.1,66 115.5,60.3 115,63.7 117.4,61.9 118.2,63 115.8,64.8 119.1,65.3 111.8,69.6 109.6,69.3 "/>
<path class="st1" d="M111.8,85.2l0,25.9H93.4l-0.1,0.5c-0.4,1.6-1.8,2.7-3.5,2.7s-3.1-1.1-3.4-2.7l-0.1-0.5H67.8l0-25.9h-1.4v27.4
	h18.8c0.7,1.9,2.6,3.2,4.7,3.2c2.1,0,4-1.3,4.7-3.2h18.8V85.2C113.2,85.2,111.8,85.2,111.8,85.2z"/>
<path class="st1" d="M125.8,120.3c-1.7-2.7-3.6-5.2-5.9-7.5h0l-1.1,1.6l-3.4-2.5v1.7l2.6,1.9l-1.1,1.6h0
	C119.7,118.5,122.7,119.6,125.8,120.3L125.8,120.3L125.8,120.3L125.8,120.3z"/>
<polygon class="st1" points="70.7,81.2 73.1,81.2 65.5,75.7 65.2,73.6 58.8,67.9 59.3,71.2 56.9,69.5 56.1,70.6 58.5,72.4 
	55.1,72.9 62.5,77.2 64.7,76.9 "/>
<polygon class="st1" points="64.3,86.2 60.2,83.3 59.9,81.1 53.5,75.4 54,78.8 51.6,77 50.8,78.2 53.2,79.9 49.8,80.4 57.2,84.8 
	59.4,84.4 64.3,88 "/>
<path class="st1" d="M120.5,127.9c-1.7-2.7-3.6-5.2-5.9-7.5h0l-1.1,1.6l-10-7.3H101l11.6,8.4l-1.1,1.6h0
	C114.3,126.1,117.4,127.2,120.5,127.9L120.5,127.9L120.5,127.9L120.5,127.9z"/>
<polygon class="st1" points="64.3,97.6 54.9,90.8 54.6,88.7 48.2,83 48.7,86.3 46.3,84.6 45.5,85.7 47.9,87.5 44.5,88 51.9,92.3 
	54.1,92 64.3,99.4 "/>
<path class="st1" d="M109.3,127.9L109.3,127.9l-1.2,1.6l-16.3-11.9c-0.6,0.2-1.3,0.3-2,0.3l0,0l17.5,12.7l-1.1,1.6h0
	c2.8,1.4,5.9,2.5,9,3.3h0l0,0C113.5,132.7,111.6,130.2,109.3,127.9L109.3,127.9z"/>
<path class="st1" d="M64.3,102.2v-1.7l-8.7,6.3l-1.1-1.6h0c-2.2,2.3-4.2,4.8-5.9,7.5l0,0h0c3.1-0.7,6.1-1.8,9-3.3h0l-1.1-1.6
	L64.3,102.2L64.3,102.2z"/>
<path class="st1" d="M131.1,112.8c-1.6-2.7-3.6-5.2-5.9-7.5h0l-1.1,1.6l-8.7-6.3v1.7l7.9,5.7l-1.1,1.6h0
	C125,111,128,112.1,131.1,112.8L131.1,112.8L131.1,112.8L131.1,112.8z"/>
<path class="st1" d="M99.3,146.7c0.2-0.7,0.9-2.7,1.1-3.4c0.4-1.2-0.3-2.5-1.5-2.9l-3.2-0.6l2.2-2.4c0.8-1,0.5-2.5-0.5-3.2
	c-0.6-0.4-2.3-1.7-2.9-2.1c-0.4-0.3-0.9-0.4-1.4-0.4c-0.7,0-1.4,0.3-1.9,0.9l-1.5,2.9l-1.5-2.9c-0.4-0.6-1.2-0.9-1.9-0.9
	c-0.5,0-1,0.1-1.4,0.4c-0.6,0.4-2.3,1.7-2.9,2.1c-1,0.8-1.3,2.2-0.5,3.2l2.2,2.4l-3.2,0.6c-1.2,0.4-1.9,1.7-1.5,2.9
	c0.2,0.7,0.9,2.7,1.1,3.4c0.3,1,1.2,1.6,2.2,1.6c0.2,0,0.5,0,0.7-0.1l2.9-1.4l-0.4,3.2c0,1.3,1,2.3,2.3,2.3h3.5c1.3,0,2.3-1,2.3-2.3
	l-0.4-3.2l2.9,1.4c0.2,0.1,0.5,0.1,0.7,0.1C98.1,148.3,99,147.6,99.3,146.7L99.3,146.7z M92.1,144.5c-0.1,0-0.2,0-0.2,0
	c-0.4,1.6-2,3.2-2,3.2s-1.6-1.6-2-3.2c-0.1,0-0.2,0-0.2,0c-1.6,0-3.4-0.9-3.4-0.9s1-2,2.4-2.9c-0.6-1.5-0.2-3.7-0.2-3.7
	s2.2,0.3,3.5,1.4c1.2-1.1,3.5-1.4,3.5-1.4s0.4,2.2-0.2,3.7c1.4,0.9,2.4,2.9,2.4,2.9S93.6,144.5,92.1,144.5z"/>
<circle class="st1" cx="89.8" cy="141.7" r="1.5"/>
<path class="st1" d="M80.2,138.9L80.2,138.9l0.2,0l0.3-0.1l-0.2-0.2l-0.1-0.1l-0.1-0.1c-0.4-0.5-0.6-1.1-0.7-1.7
	c-1.1,0.3-2,0.8-2.1,0.8l-0.3,0.2l0.2,0.3c0,0.1,0.5,1,1.2,1.9C79.1,139.4,79.6,139.1,80.2,138.9L80.2,138.9z"/>
<path class="st1" d="M89.5,131.7L89.5,131.7l0.1,0.2l0.2,0.3l0.2-0.3l0-0.1l0.1-0.1c0.4-0.5,0.8-0.9,1.4-1.2c-0.6-1-1.3-1.7-1.4-1.8
	l-0.2-0.2l-0.2,0.2c-0.1,0.1-0.8,0.8-1.4,1.8C88.7,130.8,89.2,131.2,89.5,131.7z"/>
<path class="st1" d="M102,137.5c-0.1,0-1-0.5-2.1-0.8c-0.1,0.6-0.3,1.2-0.7,1.7l-0.1,0.1l-0.1,0.1l-0.2,0.2l0.3,0.1l0.1,0l0.1,0
	c0.6,0.2,1.1,0.5,1.5,0.9c0.7-0.9,1.2-1.8,1.2-1.9l0.2-0.3C102.3,137.7,102,137.5,102,137.5z"/>
<path class="st1" d="M97.1,149.8c-0.4,0-0.8-0.1-1.2-0.2l-0.1,0l-0.1-0.1l-0.3-0.1l0.1,0.3v0.1l0,0.1c0,0.6-0.2,1.2-0.4,1.7
	c1.1,0.4,2.1,0.6,2.2,0.6l0.3,0.1l0.1-0.3c0-0.1,0.2-1.1,0.1-2.2C97.5,149.8,97.3,149.8,97.1,149.8z"/>
<path class="st1" d="M84.1,150v-0.2l0.1-0.3l-0.3,0.2l-0.1,0.1l-0.1,0c-0.4,0.1-0.8,0.2-1.2,0.2c-0.2,0-0.4,0-0.6-0.1
	c-0.1,1.1,0.1,2.2,0.1,2.2l0.1,0.3l0.3-0.1c0.1,0,1.1-0.2,2.2-0.6C84.3,151.2,84.1,150.6,84.1,150z"/>
<path class="st1" d="M86.3,94.8c-0.3,0-0.5,0.4-0.5,1.1h0.6c0.3,0,0.4-0.1,0.4-0.4C86.8,95.1,86.6,94.8,86.3,94.8L86.3,94.8z"/>
<path class="st1" d="M72.5,93.7h-0.2c0,0.6,0,1.2,0,1.8v0.2c0,0.6,0,1.2,0,1.8h0.2c0.8,0,1.3-0.7,1.3-1.9S73.3,93.7,72.5,93.7
	L72.5,93.7z"/>
<path class="st1" d="M84.5,82.6H69.2v25.8h15.3c1.8,0,3.5,0.8,4.6,2.2V87.2C89.1,84.7,87,82.6,84.5,82.6z M76.5,92.6
	c0.4,0,0.7,0.3,0.7,0.6c0,0.4-0.3,0.6-0.7,0.6s-0.7-0.3-0.7-0.6S76.1,92.6,76.5,92.6z M72.5,98.1h-2.1v-0.5l0.5-0.1
	c0-0.6,0-1.2,0-1.8v-0.2c0-0.6,0-1.2,0-1.8l-0.5-0.1v-0.5h2.2c1.6,0,2.6,0.9,2.6,2.4S74.1,98.1,72.5,98.1L72.5,98.1z M77.5,98.1h-2
	v-0.4l0.4-0.1c0-0.3,0-0.8,0-1.1v-0.3c0-0.4,0-0.6,0-0.9l-0.5-0.1v-0.4l1.6-0.5l0.2,0.1l0,1.1v1c0,0.3,0,0.7,0,1.1l0.4,0.1
	L77.5,98.1L77.5,98.1z M79,98.2c-0.5,0-0.9-0.1-1.3-0.3l0,0l0-1h0.7l0.1,0.7c0.2,0.1,0.3,0.1,0.5,0.1c0.4,0,0.6-0.1,0.6-0.4
	c0-0.2-0.1-0.3-0.6-0.5l-0.4-0.1c-0.6-0.2-0.9-0.6-0.9-1.1c0-0.8,0.6-1.2,1.6-1.2c0.4,0,0.8,0.1,1.2,0.3l0,0l-0.1,0.9h-0.7l-0.2-0.6
	c-0.1,0-0.2,0-0.4,0s-0.5,0-0.5,0.4c0,0.1,0,0.3,0.6,0.4l0.4,0.1c0.7,0.2,1,0.6,1,1.2C80.7,97.7,80,98.2,79,98.2L79,98.2z
	 M84.3,95.5c-0.1,0.3-0.3,0.4-0.5,0.4c-0.2,0-0.6-0.1-0.6-0.7l-0.1-0.3c0,0-0.1,0-0.1,0c-0.4,0-0.8,0.3-0.8,1.3c0,0.8,0.4,1.3,1,1.3
	c0.3,0,0.5-0.1,0.8-0.4l0,0l0.3,0.3l0,0c-0.3,0.6-0.8,0.9-1.5,0.9c-1.3,0-1.9-1-1.9-1.9c0-1.2,0.8-1.9,2-1.9
	C83.7,94.3,84.3,94.8,84.3,95.5L84.3,95.5L84.3,95.5L84.3,95.5z M86.8,97.4c0.3,0,0.6-0.1,0.8-0.4l0,0l0.3,0.3l0,0
	c-0.3,0.6-0.8,0.9-1.6,0.9c-1.1,0-1.9-0.8-1.9-1.9c0-1.3,1-1.9,1.9-1.9s1.6,0.6,1.6,1.6c0,0.2,0,0.3,0,0.4v0h-2.1
	C85.9,97,86.2,97.4,86.8,97.4L86.8,97.4z"/>
<path class="st1" d="M94.6,93.7h-0.2c0,0.6,0,1.2,0,1.8v0.2c0,0.6,0,1.2,0,1.8h0.2c0.8,0,1.3-0.7,1.3-1.9S95.4,93.7,94.6,93.7
	L94.6,93.7z"/>
<path class="st1" d="M99.4,94.8c-0.4,0-0.6,0.5-0.6,1.5c0,1.3,0.3,1.4,0.6,1.4c0.4,0,0.6-0.5,0.6-1.4C100,95.3,99.8,94.8,99.4,94.8z
	"/>
<path class="st1" d="M95.1,82.6c-2.5,0-4.6,2.1-4.6,4.6v23.3c1.1-1.3,2.8-2.2,4.6-2.2h15.3V82.6C110.4,82.6,95.1,82.6,95.1,82.6z
	 M94.6,98.1h-2.1v-0.5l0.6-0.1c0-0.6,0-1.2,0-1.8v-0.2c0-0.6,0-1.2,0-1.8l-0.6-0.1v-0.5h2.2c1.6,0,2.5,0.9,2.5,2.5
	S96.2,98.1,94.6,98.1L94.6,98.1z M99.4,98.2c-1.2,0-1.9-0.8-1.9-2c0-1.1,0.8-1.9,1.9-1.9s1.9,0.8,1.9,1.9S100.6,98.2,99.4,98.2z
	 M105,95.4c-0.1,0.3-0.3,0.4-0.6,0.4c-0.2,0-0.6-0.1-0.6-0.7l-0.1-0.3c0,0-0.1,0-0.1,0c-0.4,0-0.8,0.3-0.8,1.3c0,0.8,0.4,1.3,1,1.3
	c0.3,0,0.6-0.1,0.8-0.4l0,0l0.3,0.3l0,0c-0.3,0.6-0.8,0.9-1.6,0.9c-1.3,0-1.9-1-1.9-1.9c0-1.2,0.8-2,2-2
	C104.3,94.3,104.9,94.8,105,95.4L105,95.4L105,95.4L105,95.4z M107.4,97.4c0.3,0,0.6-0.1,0.8-0.4l0,0l0.3,0.3l0,0
	c-0.3,0.6-0.8,0.9-1.6,0.9c-1.1,0-1.9-0.8-1.9-1.9c0-1.3,1-1.9,1.9-1.9s1.6,0.6,1.6,1.6c0,0.2,0,0.3-0.1,0.4v0h-2.1
	C106.5,97,106.9,97.4,107.4,97.4L107.4,97.4z"/>
<path class="st1" d="M107,94.8c-0.3,0-0.5,0.4-0.5,1.1h0.6c0.3,0,0.4-0.1,0.4-0.4C107.4,95.1,107.3,94.8,107,94.8L107,94.8z"/>
<path class="st0" d="M347.7,108.8c3.4,0,6-2.4,6-5.7s-2.6-5.7-6-5.7s-6.1,2.3-6.1,5.7S344.3,108.8,347.7,108.8z"/>
<path class="st0" d="M183.4,47.6h12.8v2.5l-4.6,0.5v17.5c0,11.3-5.4,15.8-13.4,15.8s-13.3-4.1-13.3-14.3v-5.8c0-4.4,0-8.9-0.1-13.3
	l-4.2-0.4v-2.5h16.3v2.5l-4.9,0.5c-0.1,4.3-0.1,8.8-0.1,13.2V68c0,8.7,3,11.6,8.2,11.6s8.4-3.3,8.4-12.2V50.7l-5.2-0.6V47.6z"/>
<path class="st0" d="M196.9,80.9l3.5-0.7c0.1-2.6,0.1-6.1,0.1-8.4V69c0-2.9-0.1-4.3-0.2-6.4l-3.8-0.5v-2l8.9-3.4l0.9,0.5l0.4,4.1
	c2.7-3.1,5.8-4.7,9.1-4.7c4.7,0,7.3,2.9,7.3,9.6v5.6c0,2.4,0,5.8,0.1,8.4l3.3,0.6V83h-13.2v-2.2l3.4-0.7c0.1-2.6,0.1-5.9,0.1-8.4
	v-5.1c0-4.2-1.1-5.6-3.8-5.6c-1.9,0-3.9,0.9-6,2.6v8c0,2.3,0,5.7,0.1,8.4l3.2,0.6V83h-13.2L196.9,80.9L196.9,80.9z"/>
<path class="st0" d="M229.1,80.9l3.5-0.7c0.1-2.6,0.1-6.1,0.1-8.4v-2.5c0-2.9-0.1-4.6-0.2-6.7l-3.8-0.5v-2l9.6-3.4l0.9,0.5l-0.2,7.5
	v7.1c0,2.3,0,5.7,0.1,8.4l3.3,0.6v2.2h-13.3L229.1,80.9L229.1,80.9z"/>
<path class="st0" d="M259.7,57.4h10.2v2.2l-3,0.6l-8.8,23h-3.2l-9.7-23.1l-2.8-0.5v-2.2h14.1v2.2l-4.1,0.6l5.9,15.5l5.3-15.5
	l-3.9-0.7L259.7,57.4L259.7,57.4z"/>
<path class="st0" d="M270.2,70.4c0-8.6,6.3-13.7,13-13.7c6.3,0,10.5,4.3,10.5,10.8c0,1.2-0.1,2.1-0.3,2.9H277c0.3,6.2,3.5,9.2,8,9.2
	c3.2,0,5.2-1.4,7-3.4l1.5,1.4c-2.1,4-5.7,6.2-10.7,6.2C275.4,83.8,270.3,78.8,270.2,70.4L270.2,70.4z M277.1,67.9h7.3
	c2.6,0,3.2-1.1,3.2-3.1c0-3.3-2.1-5.6-4.8-5.6S277.5,61.5,277.1,67.9L277.1,67.9z"/>
<path class="st0" d="M320.1,81.6l0-6.2h3.6l1,5c1.3,0.5,2.6,0.8,4.2,0.8c3.6,0,5.4-1.3,5.4-3.6c0-2-1.3-3.1-4.7-4.2l-2.7-0.9
	c-4-1.3-6.5-3.8-6.5-7.5c0-4.4,3.6-8.1,10.2-8.1c3,0,5.5,0.8,8,2.2l-0.3,5.6h-3.5l-1-4.5c-1-0.4-2-0.6-3.3-0.6
	c-2.8,0-4.5,1.3-4.5,3.4c0,1.9,1.1,2.9,4.7,4.1l2.1,0.6c5.2,1.8,7.2,4.4,7.2,8.1c0,4.8-4,8.2-11.2,8.2
	C325.5,83.8,322.9,83.1,320.1,81.6L320.1,81.6z"/>
<path class="st0" d="M342.2,80.9l3.5-0.7c0-2.6,0-6.1,0-8.4v-2.5c0-2.9,0-4.6-0.2-6.7l-3.8-0.5v-2l9.6-3.4l0.9,0.5l-0.2,7.5v7.1
	c0,2.3,0,5.7,0,8.4l3.3,0.6v2.2h-13.3L342.2,80.9L342.2,80.9z"/>
<path class="st0" d="M359.7,77.1c0-1.6,0-2.9,0-5V60.7h-4v-2.8l4.3-0.5l2-7.3h4.3l-0.2,7.4h6.4v3.3h-6.5v15.8c0,2.6,1.1,3.8,2.8,3.8
	c1.1,0,2-0.4,3.3-1.3l1.3,1.3c-1.4,2.2-3.8,3.5-7.1,3.5C362.3,83.8,359.7,81.8,359.7,77.1L359.7,77.1z"/>
<path class="st0" d="M415.4,70.3c0-8.6,6-13.6,12.9-13.6s13,5,13,13.6s-5.7,13.5-13,13.5S415.4,78.8,415.4,70.3z M434.3,70.3
	c0-7.4-2.1-11-5.9-11s-5.9,3.6-5.9,11c0,7.4,2,10.9,5.9,10.9S434.3,77.7,434.3,70.3z"/>
<path class="st0" d="M161.8,152.7l0.5-11.5h6.1l1.6,9.7c2.5,1.1,4.9,1.7,8.1,1.7c6.6,0,10.6-3.4,10.6-8.6c0-4.7-2.6-6.9-8.4-9.2
	l-3.3-1.4c-8.8-3.8-14.3-8.5-14.3-16.9c0-9.4,7.7-15.1,18.9-15.1c5.5,0,10.4,1.6,14,4.2l-0.6,10.8h-6.1l-1.6-9.2
	c-1.9-0.9-3.8-1.3-6-1.3c-5.3,0-9.6,2.9-9.6,8.1c0,4.6,2.9,7.2,8.2,9.3l3.4,1.4c10.4,4.4,14.4,8.8,14.4,16.7
	c0,9.4-7.5,15.6-19.9,15.6C172.1,156.9,165.9,155.3,161.8,152.7z"/>
<path class="st0" d="M200.9,152.3l5.3-1c0.1-3.9,0.1-9,0.1-12.4v-34.2l-5.8-0.8v-3.1l14.3-3.6l1.2,0.7l-0.3,11.2v14.3
	c4.1-4.7,8.8-7.1,13.6-7.1c6.9,0,10.9,4.4,10.9,14.3v8.3c0,3.6,0,8.6,0.1,12.5l4.9,1v3.3h-19.7v-3.3l5.1-1c0.1-3.9,0.1-8.8,0.1-12.4
	v-7.6c0-6.2-1.5-8.3-5.5-8.3c-3,0-6,1.4-9.2,4.6v11.3c0,3.5,0,8.5,0.1,12.5l4.7,1v3.3h-19.7V152.3L200.9,152.3z"/>
<path class="st0" d="M247.5,136.7c0-12.8,9.3-20.4,19.4-20.4c9.4,0,15.6,6.4,15.6,16c0,1.8-0.2,3.2-0.5,4.4h-24.4
	c0.4,9.2,5.3,13.7,12,13.7c4.7,0,7.7-2.1,10.4-5l2.3,2.1c-3.1,5.9-8.5,9.2-15.9,9.2C255.2,156.7,247.5,149.2,247.5,136.7
	L247.5,136.7z M257.7,132.9h10.9c3.8,0,4.8-1.7,4.8-4.6c0-4.9-3.2-8.3-7.1-8.3S258.3,123.4,257.7,132.9z"/>
<path class="st0" d="M358.7,136.7c0-12.8,9.3-20.4,19.4-20.4c9.4,0,15.6,6.4,15.6,16c0,1.8-0.2,3.2-0.5,4.4h-24.4
	c0.4,9.2,5.3,13.7,12,13.7c4.7,0,7.7-2.1,10.4-5l2.3,2.1c-3.1,5.9-8.5,9.2-16,9.2C366.4,156.7,358.7,149.2,358.7,136.7L358.7,136.7z
	 M368.9,132.9h10.9c3.8,0,4.8-1.7,4.8-4.6c0-4.9-3.2-8.3-7.1-8.3S369.6,123.4,368.9,132.9z"/>
<path class="st0" d="M396.6,152.3l5.4-1c0.1-4.2,0.2-8.3,0.2-12.4v-34.2l-5.8-0.8v-3.1l14.5-3.6l1.2,0.7l-0.3,11.2v29.8
	c0,4.1,0.1,8.3,0.2,12.4l5.4,1v3.3h-20.7L396.6,152.3L396.6,152.3z"/>
<path class="st0" d="M446.8,151.4c-3,3.4-6.5,5.3-11.2,5.3c-9.4,0-16.1-7.6-16.1-19.9s7.9-20.6,17.3-20.6c4.1,0,7.2,1.4,10,4.8
	v-16.4l-6.2-0.8v-3.1l14.6-3.6l1.2,0.7l-0.3,11.2v42.3l5.2,0.9v3.3l-13.9,0.9L446.8,151.4L446.8,151.4z M439.5,151
	c2.8,0,4.9-1.1,7-3.3v-22.9c-2.5-2.2-4.5-3-6.9-3c-5.3,0-9.8,4.6-9.8,14.8C429.8,146.3,433.8,151,439.5,151L439.5,151z"/>
<path class="st0" d="M314.5,56.7c-3.5-0.1-6.1,2-8,6.9l-0.5-6.3l-0.9-0.5l-8.9,3.4v2l3.8,0.5c0.1,2.1,0.2,3.5,0.2,6.4v2.8
	c0,2.3,0,5.7,0,8.4l-3.4,0.6V83H311v-2.2l-4.4-0.9c0-2.6,0-5.9,0-8.2v-3.9c0.8-2.8,2.4-5.4,4.3-6.8l0,0c0.4,1.5,1.9,2.6,3.6,2.6
	c2.1,0,3.7-1.5,3.7-3.5C318.2,58.2,316.6,56.7,314.5,56.7L314.5,56.7z"/>
<path class="st0" d="M352.7,151.3c-0.1-4-0.1-9-0.1-12.5v-10.5l0.2-12.4l-1.2-0.7l-9,2.2h-15.6c0,0,0-5.8,0-7.9s0.1-6.4,3-8
	c0,0-0.4,0.7-0.3,2.1c0.2,2.3,2.1,4,4.5,4s4.5-1.8,4.5-4.3c0-2.3-1.9-5.8-7.3-5.8c-4.8,0-13.7,2.5-13.7,19.7v0.3h-16.5
	c0,0,0-5.8,0-7.9s0.1-6.4,3-8c0,0-0.4,0.7-0.3,2.1c0.2,2.3,2.1,4,4.5,4s4.5-1.8,4.5-4.3c0-2.3-1.9-5.8-7.3-5.8
	c-4.8,0-13.7,2.5-13.7,19.7v0.2l-6.1,0.8v4.2h5.9v16.6c0,4.2-0.1,8.3-0.2,12.4l-5.3,1v3.3h21.5v-3.3l-6.2-1.2
	c-0.1-4.1-0.2-8.2-0.2-12.3v-16.6h16.2v16.6c0,4.2-0.1,8.3-0.2,12.4l-5.3,1v3.3h21.5v-3.3l-6.2-1.2c-0.1-4.1-0.2-8.2-0.2-12.3v-16.6
	h15.5c0.1,3.3,0.2,6.9,0.2,11.7v4.9c0,3.4,0,8.5-0.1,12.4l-5.2,1v3.3h19.8v-3.3L352.7,151.3L352.7,151.3z"/>
<path class="st0" d="M393.1,57.4v2.1l4.1,0.6l-5.8,16.3l-6-16.4l4.2-0.6v-2.1h-14v2.1l2.7,0.4l10.2,24.8l-0.1,0.3
	c-1,2.7-2.4,5.2-4.3,7c-0.3-1.6-1.7-2.6-3.4-2.6c-2,0-3.5,1.3-3.5,3.3c0,2,1.5,3.3,3.5,3.3h0.1c4.7,0,7.4-3.8,10.5-12l9.1-23.9
	l3-0.6v-2.1L393.1,57.4L393.1,57.4z"/>
<path class="st0" d="M459.8,57.4h-6.5c0,0,0-4.1,0-5.5c0-1.4,0.1-4.3,2-5.4c0,0-0.3,0.5-0.2,1.4c0.1,1.6,1.4,2.7,3.1,2.7
	s3-1.2,3-2.9c0-1.5-1.2-3.9-4.9-3.9c-3.2,0-9.3,1.7-9.3,13.3v0.4l-4.1,0.5v2.7h4v11.1c0,2.8,0,5.6-0.1,8.4l-3.6,0.7v2.2h14.5v-2.2
	l-4.2-0.8c0-2.8-0.1-5.5-0.1-8.3V60.7h6.4L459.8,57.4L459.8,57.4z"/>
<path class="st0" d="M344.8,47.9c0-2.3,1.8-3.8,4.1-3.8s4,1.5,4,3.8s-1.8,3.8-4,3.8S344.8,50.1,344.8,47.9z"/>
<path class="st0" d="M231.8,47.9c0-2.3,1.8-3.8,4.1-3.8s4,1.5,4,3.8s-1.8,3.8-4,3.8S231.8,50.1,231.8,47.9z"/>
</svg>
